#!OML:ASF I:\golf\golf\golf 2\Subject 1\2002-09-07\Subject1.ASF
:FULLY-SPECIFIED
:DEGREES
513
root -5.91975 18.224 -1.75966 -164.366 53.4812 -172.899
lowerback -4.63835 7.17755 -0.969757
upperback -2.18274 9.7678 3.34616
thorax -0.428276 5.00043 4.32735
lowerneck -20.6282 -1.08635 2.79533
upperneck 15.4565 -2.93664 3.64345
head 8.21495 -0.777763 0.402253
rclavicle -3.47873e-016 -1.90833e-014
rhumerus -30.1487 42.399 -113.692
rradius 43.2804
rwrist -69.0294
rhand -33.8446 -10.0845
rfingers 7.12502
rthumb -7.02956 -39.9478
lclavicle -3.47873e-016 -1.90833e-014
lhumerus -38.2772 -48.028 119.769
lradius 49.6968
lwrist 53.5004
lhand -7.15786 59.8059
lfingers 7.12502
lthumb -161.281 -91.0748
rfemur -4.92455 -3.14612 11.8029
rtibia 28.8378
rfoot 2.77174 -21.5621
rtoes 23.2931
lfemur -19.8837 -6.58547 -13.6076
ltibia 21.4623
lfoot -10.6601 -16.9849
ltoes -15.117
514
root -5.92447 18.2237 -1.72369 -164.043 54.432 -172.601
lowerback -4.65107 7.1829 -1.11797
upperback -2.17629 9.78167 3.40683
thorax -0.451358 5.01049 4.46992
lowerneck -20.7886 -1.24391 2.56639
upperneck 15.8716 -3.14901 3.85748
head 8.3923 -0.852274 0.483515
rclavicle 1.06648e-013 4.05521e-014
rhumerus -30.238 42.205 -113.557
rradius 43.3933
rwrist -69.8971
rhand -34.4989 -9.84912
rfingers 7.12502
rthumb -7.66112 -39.6904
lclavicle 1.06648e-013 4.05521e-014
lhumerus -37.6661 -47.554 119.221
lradius 49.4258
lwrist 52.0261
lhand -6.97253 61.0475
lfingers 7.12502
lthumb -161.103 -270.15
rfemur -5.19939 -3.05574 12.0568
rtibia 28.6945
rfoot 1.96137 -22.1289
rtoes 24.6471
lfemur -19.8733 -6.19349 -13.487
ltibia 21.5632
lfoot -10.7347 -16.3551
ltoes -15.2729
515
root -5.93778 18.2206 -1.69194 -163.766 55.3188 -172.359
lowerback -4.60179 7.16246 -1.10601
upperback -2.1884 9.75201 3.3887
thorax -0.483269 4.99484 4.43642
lowerneck -20.704 -1.40775 2.40156
upperneck 16.0426 -3.36553 4.0644
head 8.44496 -0.935372 0.552432
rclavicle -1.90436e-013 -6.99722e-014
rhumerus -30.2933 41.8789 -113.42
rradius 43.5315
rwrist -70.5814
rhand -34.9546 -10.1985
rfingers 7.12502
rthumb -8.101 -40.0232
lclavicle -1.90436e-013 -6.99722e-014
lhumerus -37.0092 -47.0446 118.502
lradius 49.1148
lwrist 49.8669
lhand -4.26395 62.3247
lfingers 7.12502
lthumb -158.5 -271.151
rfemur -5.50385 -3.16763 12.2302
rtibia 28.5873
rfoot 1.25396 -22.7078
rtoes 25.8066
lfemur -19.8757 -5.91554 -13.408
ltibia 21.6181
lfoot -10.7677 -15.7799
ltoes -15.5777
516
root -5.95125 18.2168 -1.66279 -163.743 56.2773 -172.37
lowerback -4.53493 7.11848 -1.22232
upperback -2.178 9.69209 3.3428
thorax -0.515318 4.96337 4.4417
lowerneck -20.5518 -1.59306 2.17812
upperneck 16.1989 -3.59891 4.31059
head 8.48386 -1.02692 0.642317
rclavicle -1.00138e-013 -2.8625e-014
rhumerus -30.3491 41.5689 -113.324
rradius 43.6562
rwrist -71.1329
rhand -35.4935 -11.0121
rfingers 7.12502
rthumb -8.62108 -40.8161
lclavicle -1.00138e-013 -2.8625e-014
lhumerus -36.4456 -46.5522 117.886
lradius 48.7748
lwrist 47.9305
lhand -0.908084 62.9584
lfingers 7.12502
lthumb -155.28 -271.381
rfemur -5.75729 -3.45338 12.1741
rtibia 28.5069
rfoot 0.169072 -23.26
rtoes 28.0495
lfemur -19.8026 -5.66059 -13.5156
ltibia 21.6676
lfoot -10.8309 -15.1663
ltoes -16.0336
517
root -5.9637 18.2111 -1.63571 -163.85 57.1353 -172.549
lowerback -4.58003 7.00796 -1.40388
upperback -2.12311 9.54292 3.30278
thorax -0.443227 4.88529 4.50628
lowerneck -20.1955 -1.77979 1.70007
upperneck 16.1191 -3.79746 4.84803
head 8.4194 -1.09621 0.877518
rclavicle -7.00716e-015 -1.90833e-014
rhumerus -30.2423 41.2357 -113.138
rradius 43.6418
rwrist -71.4513
rhand -35.6806 -11.4344
rfingers 7.12502
rthumb -8.80161 -41.2309
lclavicle -7.00716e-015 -1.90833e-014
lhumerus -35.8114 -46.1472 117.298
lradius 48.4057
lwrist 46.401
lhand 0.748046 62.4133
lfingers 7.12502
lthumb -153.693 -270.609
rfemur -6.01825 -3.82782 12.0623
rtibia 28.4351
rfoot -1.17102 -23.9499
rtoes 30.4558
lfemur -19.7677 -5.49541 -13.6969
ltibia 21.7112
lfoot -10.887 -14.4846
ltoes -16.5432
518
root -5.97463 18.2054 -1.60871 -163.789 58.0965 -172.5
lowerback -4.62396 6.96726 -1.45407
upperback -2.05733 9.4821 3.25916
thorax -0.346069 4.84949 4.49955
lowerneck -19.56 -1.99912 1.09969
upperneck 15.7099 -4.02074 5.60191
head 8.2061 -1.17658 1.20273
rclavicle -8.43841e-014 -3.49861e-014
rhumerus -30.033 40.7656 -112.861
rradius 43.5767
rwrist -71.6226
rhand -35.6512 -11.7716
rfingers 7.12502
rthumb -8.77317 -41.5693
lclavicle -8.43841e-014 -3.49861e-014
lhumerus -35.1734 -45.9275 116.665
lradius 48.1535
lwrist 45.0876
lhand 2.45912 62.3866
lfingers 7.12502
lthumb -152.056 -270.327
rfemur -6.29933 -4.00534 12.0824
rtibia 28.3586
rfoot -2.07387 -24.5988
rtoes 31.9026
lfemur -19.6769 -5.31161 -13.7567
ltibia 21.7614
lfoot -10.9047 -13.7043
ltoes -17.0852
